<?xml version="1.0" encoding="UTF-8"?>
<svg xmlns="http://www.w3.org/2000/svg" xmlns:xlink="http://www.w3.org/1999/xlink" width="24pt" height="24pt" viewBox="0 0 24 24" version="1.1">
<g id="surface1">
<path style=" stroke:none;fill-rule:nonzero;fill:rgb(67.843137%,67.843137%,67.843137%);fill-opacity:1;" d="M 6 2 L 7.171875 2.203125 C 6.816406 4.449219 7.960938 4.722656 9.871094 5.078125 C 11.339844 5.351562 13 5.699219 13 8.359375 L 13 9 L 11.816406 9 L 11.816406 8.359375 C 11.816406 6.804688 11.335938 6.550781 9.652344 6.238281 C 7.070312 5.757812 5.558594 4.847656 6 2 Z M 24 16 C 24 19.3125 21.394531 22 18.175781 22 C 16.664062 22 15.289062 21.40625 14.253906 20.433594 C 12.941406 19.207031 10.976562 19.304688 9.703125 20.472656 C 8.675781 21.421875 7.316406 22 5.824219 22 C 2.609375 22 0 19.3125 0 16 C 0 12.6875 2.609375 10 5.824219 10 L 18.386719 10.007812 C 21.507812 10.121094 24 12.761719 24 16 Z M 9 15 L 7 15 L 7 13 L 5 13 L 5 15 L 3 15 L 3 17 L 5 17 L 5 19 L 7 19 L 7 17 L 9 17 Z M 13 16 L 11 16 L 11 17 L 13 17 Z M 17 14 C 17 14.550781 17.445312 15 18 15 C 18.554688 15 19 14.550781 19 14 C 19 13.449219 18.554688 13 18 13 C 17.445312 13 17 13.449219 17 14 Z M 17 16 C 17 15.449219 16.554688 15 16 15 C 15.445312 15 15 15.449219 15 16 C 15 16.550781 15.445312 17 16 17 C 16.554688 17 17 16.550781 17 16 Z M 19 18 C 19 17.449219 18.554688 17 18 17 C 17.445312 17 17 17.449219 17 18 C 17 18.550781 17.445312 19 18 19 C 18.554688 19 19 18.550781 19 18 Z M 21 16 C 21 15.449219 20.554688 15 20 15 C 19.445312 15 19 15.449219 19 16 C 19 16.550781 19.445312 17 20 17 C 20.554688 17 21 16.550781 21 16 Z M 21 16 "/>
</g>
</svg>
