<?xml version="1.0" encoding="UTF-8"?>
<svg xmlns="http://www.w3.org/2000/svg" xmlns:xlink="http://www.w3.org/1999/xlink" width="2424pt" height="2424pt" viewBox="0 0 2424 2424" version="1.1">
<g id="surface1">
<path style=" stroke:none;fill-rule:nonzero;fill:rgb(67.843137%,67.843137%,67.843137%);fill-opacity:1;" d="M 606 202 L 724.269531 222.503906 C 688.414062 449.246094 804.160156 476.921875 996.871094 512.777344 C 1145.136719 540.351562 1313 575.597656 1313 844.460938 L 1313 909 L 1193.515625 909 L 1193.515625 844.460938 C 1193.515625 687.304688 1145.035156 661.753906 974.953125 630.140625 C 714.070312 581.660156 561.257812 489.648438 606 202 Z M 2424 1616 C 2424 1950.511719 2160.691406 2222 1835.675781 2222 C 1683.0625 2222 1544.1875 2161.90625 1439.652344 2063.933594 C 1307.242188 1939.804688 1108.574219 1949.601562 980.105469 2067.773438 C 876.074219 2163.519531 738.816406 2222 588.324219 2222 C 263.40625 2222 0 1950.511719 0 1616 C 0 1281.488281 263.40625 1010 588.324219 1010 L 1857.1875 1010.707031 C 2172.105469 1022.421875 2424 1288.960938 2424 1616 Z M 909 1515 L 707 1515 L 707 1313 L 505 1313 L 505 1515 L 303 1515 L 303 1717 L 505 1717 L 505 1919 L 707 1919 L 707 1717 L 909 1717 Z M 1313 1616 L 1111 1616 L 1111 1717 L 1313 1717 Z M 1717 1414 C 1717 1469.753906 1762.148438 1515 1818 1515 C 1873.851562 1515 1919 1469.753906 1919 1414 C 1919 1358.246094 1873.851562 1313 1818 1313 C 1762.148438 1313 1717 1358.246094 1717 1414 Z M 1717 1616 C 1717 1560.246094 1671.851562 1515 1616 1515 C 1560.148438 1515 1515 1560.246094 1515 1616 C 1515 1671.753906 1560.148438 1717 1616 1717 C 1671.851562 1717 1717 1671.753906 1717 1616 Z M 1919 1818 C 1919 1762.246094 1873.851562 1717 1818 1717 C 1762.148438 1717 1717 1762.246094 1717 1818 C 1717 1873.753906 1762.148438 1919 1818 1919 C 1873.851562 1919 1919 1873.753906 1919 1818 Z M 2121 1616 C 2121 1560.246094 2075.851562 1515 2020 1515 C 1964.148438 1515 1919 1560.246094 1919 1616 C 1919 1671.753906 1964.148438 1717 2020 1717 C 2075.851562 1717 2121 1671.753906 2121 1616 Z M 2121 1616 "/>
</g>
</svg>
