<?xml version="1.0" encoding="UTF-8"?>
<svg xmlns="http://www.w3.org/2000/svg" xmlns:xlink="http://www.w3.org/1999/xlink" width="24pt" height="24pt" viewBox="0 0 24 24" version="1.1">
<g id="surface1">
<path style=" stroke:none;fill-rule:nonzero;fill:rgb(67.843137%,67.843137%,67.843137%);fill-opacity:1;" d="M 19 0 L 5 0 C 2.238281 0 0 2.238281 0 5 L 0 19 C 0 21.761719 2.238281 24 5 24 L 19 24 C 21.761719 24 24 21.761719 24 19 L 24 5 C 24 2.238281 21.761719 0 19 0 Z M 8 19 L 5 19 L 5 8 L 8 8 Z M 6.5 6.730469 C 5.535156 6.730469 4.75 5.941406 4.75 4.96875 C 4.75 3.992188 5.535156 3.203125 6.5 3.203125 C 7.464844 3.203125 8.25 3.992188 8.25 4.96875 C 8.25 5.941406 7.46875 6.730469 6.5 6.730469 Z M 20 19 L 17 19 L 17 13.394531 C 17 10.027344 13 10.28125 13 13.394531 L 13 19 L 10 19 L 10 8 L 13 8 L 13 9.765625 C 14.394531 7.179688 20 6.988281 20 12.242188 Z M 20 19 "/>
</g>
</svg>
