<?xml version="1.0" encoding="UTF-8"?>
<svg xmlns="http://www.w3.org/2000/svg" xmlns:xlink="http://www.w3.org/1999/xlink" width="24pt" height="24pt" viewBox="0 0 24 24" version="1.1">
<g id="surface1">
<path style=" stroke:none;fill-rule:nonzero;fill:rgb(67.843137%,67.843137%,67.843137%);fill-opacity:1;" d="M 11.363281 2 C 15.519531 2 14 8 14 8 C 14 8 20 6.351562 20 10.457031 L 20 22 L 4 22 L 4 2 Z M 12.1875 0 L 2 0 L 2 24 L 22 24 L 22 9.613281 C 22 7.222656 15.351562 0 12.1875 0 Z M 17 13 L 7 13 L 7 12 L 17 12 Z M 17 15 L 7 15 L 7 16 L 17 16 Z M 17 18 L 7 18 L 7 19 L 17 19 Z M 17 18 "/>
</g>
</svg>
